<?xml version="1.0" standalone="no"?>
<!DOCTYPE svg PUBLIC "-//W3C//DTD SVG 20010904//EN"
 "http://www.w3.org/TR/2001/REC-SVG-20010904/DTD/svg10.dtd">
<svg version="1.0" xmlns="http://www.w3.org/2000/svg"
 width="512.000000pt" height="512.000000pt" viewBox="0 0 512.000000 512.000000"
 preserveAspectRatio="xMidYMid meet">

<g transform="translate(0.000000,512.000000) scale(0.100000,-0.100000)"
fill="#000000" stroke="none">
<path d="M2595 4970 c-251 -40 -472 -150 -655 -326 -140 -135 -258 -325 -306
-490 -9 -33 -18 -62 -21 -66 -2 -5 -34 23 -71 60 -165 167 -368 257 -607 269
-416 20 -794 -260 -906 -672 -32 -115 -32 -335 0 -450 42 -155 125 -300 236
-411 l62 -62 -41 -6 c-101 -16 -208 -98 -255 -196 l-26 -55 0 -1085 0 -1085
27 -56 c35 -70 97 -132 168 -167 l55 -27 625 -3 c460 -2 632 0 653 9 57 24 75
107 33 156 l-24 28 -619 5 c-687 6 -662 3 -700 73 -17 30 -18 96 -18 1067 0
971 1 1037 18 1067 9 18 32 41 50 50 30 17 123 18 1667 18 1544 0 1637 -1
1667 -18 18 -9 41 -32 50 -50 17 -30 18 -96 18 -1067 0 -971 -1 -1037 -18
-1067 -38 -70 -13 -67 -700 -73 l-619 -5 -24 -28 c-42 -49 -24 -132 33 -156
21 -9 193 -11 653 -9 l625 3 57 28 c72 35 130 93 165 165 26 53 28 67 31 210
l4 152 99 0 c96 0 100 -1 127 -29 31 -33 616 -378 677 -399 49 -17 138 -11
186 13 47 24 97 72 122 120 l22 40 0 1035 0 1035 -22 40 c-25 48 -75 96 -122
120 -48 24 -137 30 -186 13 -61 -21 -646 -366 -677 -399 -27 -28 -31 -29 -127
-29 l-99 0 -4 153 c-3 142 -5 156 -31 209 -35 72 -93 130 -165 165 -48 23 -72
28 -159 31 l-103 4 63 48 c329 249 505 687 443 1100 -39 258 -150 476 -335
661 -221 222 -484 335 -796 344 -77 2 -167 0 -200 -5z m405 -226 c178 -45 328
-132 456 -266 165 -173 252 -359 273 -586 44 -481 -264 -916 -735 -1038 -167
-43 -363 -37 -534 18 -242 77 -455 260 -570 488 -312 620 99 1351 795 1414 79
7 222 -7 315 -30z m-1927 -550 c279 -72 479 -301 518 -593 19 -141 -17 -310
-93 -439 -42 -73 -167 -198 -240 -240 -129 -76 -298 -112 -439 -93 -167 22
-291 83 -409 201 -118 118 -179 242 -201 409 -19 141 17 310 93 439 42 73 167
198 240 240 68 40 177 79 256 92 72 11 199 4 275 -16z m835 -1206 c42 -43 102
-99 135 -124 l59 -44 -316 0 -316 0 64 63 c73 74 135 162 178 253 l30 65 45
-67 c25 -36 79 -102 121 -146z m2992 -508 c20 -20 20 -33 20 -1000 0 -967 0
-980 -20 -1000 -11 -11 -27 -20 -37 -20 -9 0 -144 75 -300 167 l-283 166 0
687 0 687 283 166 c155 92 290 167 300 167 9 0 26 -9 37 -20z m-820 -1000 l0
-580 -100 0 -100 0 0 580 0 580 100 0 100 0 0 -580z"/>
<path d="M2570 4560 c-41 -11 -118 -41 -170 -67 -80 -40 -110 -62 -190 -143
-81 -80 -103 -110 -143 -190 -63 -127 -87 -225 -87 -360 0 -135 24 -233 87
-360 40 -80 62 -110 143 -190 80 -81 110 -103 190 -143 127 -63 225 -87 360
-87 371 0 689 257 765 618 19 86 19 238 0 324 -61 291 -286 523 -579 598 -105
27 -271 27 -376 0z m322 -199 c115 -30 193 -74 274 -155 107 -107 174 -263
174 -406 0 -143 -67 -299 -174 -406 -230 -230 -582 -230 -812 0 -180 180 -223
433 -112 662 50 105 160 212 269 263 135 63 248 76 381 42z"/>
<path d="M2689 4141 c-40 -40 -40 -89 0 -133 24 -27 36 -33 71 -33 35 0 47 6
72 34 26 29 30 39 25 75 -12 84 -108 117 -168 57z"/>
<path d="M2419 3871 c-62 -62 -20 -171 65 -171 25 0 45 9 68 29 27 24 33 36
33 71 0 35 -6 47 -33 71 -44 40 -93 40 -133 0z"/>
<path d="M2968 3871 c-27 -24 -33 -36 -33 -71 0 -35 6 -47 33 -71 44 -40 93
-40 133 0 62 62 20 171 -65 171 -25 0 -45 -9 -68 -29z"/>
<path d="M2724 3621 c-65 -28 -84 -113 -35 -162 60 -60 156 -27 168 57 4 35 1
46 -23 73 -31 33 -76 46 -110 32z"/>
<path d="M780 3966 c-134 -39 -238 -127 -298 -253 -36 -76 -37 -81 -37 -193 0
-112 1 -117 37 -193 86 -180 253 -277 454 -264 166 10 307 108 382 264 36 76
37 81 37 193 0 112 -1 117 -37 193 -49 103 -122 176 -224 224 -68 32 -86 36
-172 39 -60 2 -114 -2 -142 -10z m199 -202 c99 -29 181 -140 181 -244 0 -133
-127 -260 -260 -260 -133 0 -260 127 -260 260 0 101 82 215 176 244 64 19 99
19 163 0z"/>
<path d="M2930 2318 c-76 -29 -160 -114 -188 -191 -49 -131 -20 -271 77 -368
97 -97 237 -126 368 -77 79 29 162 112 191 191 49 131 20 271 -77 368 -71 71
-141 99 -244 98 -48 0 -90 -7 -127 -21z m202 -205 c47 -23 72 -91 56 -149 -35
-129 -221 -130 -256 0 -20 70 15 137 83 161 42 14 72 11 117 -12z"/>
<path d="M569 1751 l-29 -29 0 -522 0 -522 29 -29 29 -29 912 0 912 0 29 29
29 29 0 522 0 522 -29 29 -29 29 -912 0 -912 0 -29 -29z m1711 -551 l0 -380
-770 0 -770 0 0 380 0 380 770 0 770 0 0 -380z"/>
<path d="M2749 1351 l-29 -29 0 -282 0 -282 29 -29 29 -29 282 0 282 0 29 29
29 29 0 282 0 282 -29 29 -29 29 -282 0 -282 0 -29 -29z m451 -311 l0 -140
-140 0 -140 0 0 140 0 140 140 0 140 0 0 -140z"/>
<path d="M1869 311 c-81 -81 17 -210 120 -157 57 30 68 110 22 157 -41 41
-101 41 -142 0z"/>
</g>
</svg>
