<?xml version="1.0" standalone="no"?>
<!DOCTYPE svg PUBLIC "-//W3C//DTD SVG 20010904//EN"
 "http://www.w3.org/TR/2001/REC-SVG-20010904/DTD/svg10.dtd">
<svg version="1.0" xmlns="http://www.w3.org/2000/svg"
 width="512.000000pt" height="512.000000pt" viewBox="0 0 512.000000 512.000000"
 preserveAspectRatio="xMidYMid meet">

<g transform="translate(0.000000,512.000000) scale(0.100000,-0.100000)"
fill="#000000" stroke="none">
<path d="M775 4348 c-186 -106 -338 -197 -337 -203 1 -5 41 -81 89 -167 65
-116 92 -156 103 -152 24 9 654 366 666 378 9 8 -12 52 -80 173 -50 89 -93
162 -96 163 -3 0 -158 -87 -345 -192z"/>
<path d="M2118 4009 c-49 -18 -55 -94 -9 -118 14 -8 352 -11 1090 -11 l1070 0
20 26 c26 33 26 55 2 85 l-19 24 -1064 2 c-680 1 -1073 -2 -1090 -8z"/>
<path d="M2400 3373 c-51 -19 -66 -77 -30 -113 20 -20 33 -20 959 -20 l940 0
20 26 c26 33 26 55 2 85 l-19 24 -929 2 c-510 1 -935 -1 -943 -4z"/>
<path d="M2718 2729 c-49 -18 -55 -94 -9 -118 13 -8 264 -11 790 -11 l770 0
20 26 c26 33 26 55 2 85 l-19 24 -764 2 c-484 1 -773 -2 -790 -8z"/>
<path d="M3073 2093 c-47 -9 -64 -66 -33 -106 l21 -27 604 0 604 0 20 26 c26
33 26 55 2 85 l-19 24 -589 1 c-323 1 -598 0 -610 -3z"/>
<path d="M3439 1616 c-101 -36 -308 -182 -383 -269 -104 -122 -128 -232 -71
-337 21 -38 45 -65 79 -87 56 -38 88 -41 116 -13 34 34 25 65 -35 124 -63 60
-68 83 -34 152 26 56 140 162 246 231 46 30 86 53 88 51 2 -2 -9 -46 -26 -98
-57 -177 -43 -276 46 -309 34 -13 48 -13 149 7 61 12 126 23 145 25 l34 2 -2
-57 c-3 -74 19 -121 67 -144 34 -16 44 -16 122 -3 47 8 132 14 188 14 97 0
105 2 123 24 10 13 19 31 19 41 0 74 -142 96 -347 54 l-33 -6 0 63 c0 71 -13
103 -51 132 -35 25 -121 24 -253 -3 -54 -11 -101 -20 -103 -20 -10 0 6 75 37
174 31 100 38 182 20 217 -12 22 -61 49 -87 49 -10 -1 -34 -7 -54 -14z"/>
</g>
</svg>
